{
	"asset":{
		"version":"2.0",
		"generator":"Created using the official Cinema 4D glTF Exporter 1.000x290161"
	},
	"scenes":[{
		"nodes":[0,
		1,
		2,
		3,
		4,
		5,
		6,
		7,
		8,
		9,
		10]
	}],
	"nodes":[{
		"name":"Cylinder.1",
		"translation":[-85.511,
		-39.11,
		129.342],
		"rotation":[-0.69,
		0,
		0,
		-0.724],
		"scale":[1,
		1,
		1],
		"mesh":0
	},
	{
		"name":"Cylinder",
		"translation":[85.511,
		-39.11,
		129.342],
		"rotation":[-0.69,
		0,
		0,
		-0.724],
		"scale":[1,
		1,
		1],
		"mesh":1
	},
	{
		"name":"object.001",
		"translation":[0.032,
		-19.191,
		54.829],
		"rotation":[0,
		0,
		0,
		-1],
		"scale":[100,
		100,
		100],
		"mesh":2
	},
	{
		"name":"object.008",
		"translation":[0.032,
		39.169,
		-130.424],
		"rotation":[0,
		0,
		0,
		-1],
		"scale":[100,
		100,
		100],
		"mesh":3
	},
	{
		"name":"object.011",
		"translation":[0.032,
		-32.026,
		76.758],
		"rotation":[0,
		0,
		0,
		-1],
		"scale":[100,
		100,
		100],
		"mesh":4
	},
	{
		"name":"object.012",
		"translation":[0.032,
		-28.525,
		84.816],
		"rotation":[0,
		0,
		0,
		-1],
		"scale":[100,
		100,
		100],
		"mesh":5
	},
	{
		"name":"object.015",
		"translation":[0.032,
		-13.482,
		-135.966],
		"rotation":[0,
		0,
		0,
		-1],
		"scale":[100,
		100,
		100],
		"mesh":6
	},
	{
		"name":"object.016",
		"translation":[0.032,
		-17.361,
		44.042],
		"rotation":[0,
		0,
		0,
		-1],
		"scale":[100,
		100,
		100],
		"mesh":7
	},
	{
		"name":"object.017",
		"translation":[0.032,
		-9.305,
		-154.996],
		"rotation":[0,
		0,
		0,
		-1],
		"scale":[100,
		100,
		100],
		"mesh":8
	},
	{
		"name":"object.018",
		"translation":[0.031,
		-39.169,
		118.976],
		"rotation":[0,
		0,
		0,
		-1],
		"scale":[100,
		100,
		100],
		"mesh":9
	},
	{
		"name":"object.014",
		"translation":[0.032,
		-37.601,
		154.996],
		"rotation":[0,
		0,
		0,
		-1],
		"scale":[100,
		100,
		100],
		"mesh":10
	}],
	"bufferViews":[{
		"buffer":0,
		"byteOffset":0,
		"byteLength":864,
		"target":34963
	},
	{
		"buffer":0,
		"byteOffset":864,
		"byteLength":4736,
		"target":34962,
		"byteStride":32
	},
	{
		"buffer":1,
		"byteOffset":0,
		"byteLength":864,
		"target":34963
	},
	{
		"buffer":1,
		"byteOffset":864,
		"byteLength":4736,
		"target":34962,
		"byteStride":32
	},
	{
		"buffer":2,
		"byteOffset":0,
		"byteLength":5958,
		"target":34963
	},
	{
		"buffer":2,
		"byteOffset":5960,
		"byteLength":25632,
		"target":34962,
		"byteStride":24
	},
	{
		"buffer":3,
		"byteOffset":0,
		"byteLength":936,
		"target":34963
	},
	{
		"buffer":3,
		"byteOffset":936,
		"byteLength":2760,
		"target":34962,
		"byteStride":24
	},
	{
		"buffer":4,
		"byteOffset":0,
		"byteLength":1932,
		"target":34963
	},
	{
		"buffer":4,
		"byteOffset":1932,
		"byteLength":7056,
		"target":34962,
		"byteStride":24
	},
	{
		"buffer":5,
		"byteOffset":0,
		"byteLength":3264,
		"target":34963
	},
	{
		"buffer":5,
		"byteOffset":3264,
		"byteLength":10608,
		"target":34962,
		"byteStride":24
	},
	{
		"buffer":6,
		"byteOffset":0,
		"byteLength":372,
		"target":34963
	},
	{
		"buffer":6,
		"byteOffset":372,
		"byteLength":1776,
		"target":34962,
		"byteStride":24
	},
	{
		"buffer":7,
		"byteOffset":0,
		"byteLength":3552,
		"target":34963
	},
	{
		"buffer":7,
		"byteOffset":3552,
		"byteLength":11736,
		"target":34962,
		"byteStride":24
	},
	{
		"buffer":8,
		"byteOffset":0,
		"byteLength":1476,
		"target":34963
	},
	{
		"buffer":8,
		"byteOffset":1476,
		"byteLength":4800,
		"target":34962,
		"byteStride":24
	},
	{
		"buffer":9,
		"byteOffset":0,
		"byteLength":12600,
		"target":34963
	},
	{
		"buffer":9,
		"byteOffset":12600,
		"byteLength":55440,
		"target":34962,
		"byteStride":24
	},
	{
		"buffer":10,
		"byteOffset":0,
		"byteLength":276,
		"target":34963
	},
	{
		"buffer":10,
		"byteOffset":276,
		"byteLength":1248,
		"target":34962,
		"byteStride":24
	}],
	"meshes":[{
		"primitives":[{
			"attributes":{
				"POSITION":1,
				"NORMAL":2,
				"TEXCOORD_0":3
			},
			"indices":0,
			"material":0
		}]
	},
	{
		"primitives":[{
			"attributes":{
				"POSITION":5,
				"NORMAL":6,
				"TEXCOORD_0":7
			},
			"indices":4,
			"material":0
		}]
	},
	{
		"primitives":[{
			"attributes":{
				"POSITION":9,
				"NORMAL":10
			},
			"indices":8,
			"material":0
		}]
	},
	{
		"primitives":[{
			"attributes":{
				"POSITION":12,
				"NORMAL":13
			},
			"indices":11,
			"material":0
		}]
	},
	{
		"primitives":[{
			"attributes":{
				"POSITION":15,
				"NORMAL":16
			},
			"indices":14,
			"material":0
		}]
	},
	{
		"primitives":[{
			"attributes":{
				"POSITION":18,
				"NORMAL":19
			},
			"indices":17,
			"material":0
		}]
	},
	{
		"primitives":[{
			"attributes":{
				"POSITION":21,
				"NORMAL":22
			},
			"indices":20,
			"material":0
		}]
	},
	{
		"primitives":[{
			"attributes":{
				"POSITION":24,
				"NORMAL":25
			},
			"indices":23,
			"material":0
		}]
	},
	{
		"primitives":[{
			"attributes":{
				"POSITION":27,
				"NORMAL":28
			},
			"indices":26,
			"material":0
		}]
	},
	{
		"primitives":[{
			"attributes":{
				"POSITION":30,
				"NORMAL":31
			},
			"indices":29,
			"material":0
		}]
	},
	{
		"primitives":[{
			"attributes":{
				"POSITION":33,
				"NORMAL":34
			},
			"indices":32,
			"material":0
		}]
	}],
	"materials":[{
		"pbrMetallicRoughness":{
			"baseColorFactor":[0.8,
			0.8,
			0.8,
			1],
			"metallicFactor":0,
			"roughnessFactor":0.5
		},
		"emissiveFactor":[0,
		0,
		0],
		"alphaMode":"OPAQUE",
		"doubleSided":false,
		"name":"Mat"
	}],
	"accessors":[{
		"bufferView":0,
		"type":"SCALAR",
		"componentType":5123,
		"count":432,
		"byteOffset":0,
		"min":[0],
		"max":[147]
	},
	{
		"bufferView":1,
		"type":"VEC3",
		"componentType":5126,
		"count":148,
		"byteOffset":0,
		"min":[-14.145,
		-8.635,
		-14.145],
		"max":[14.145,
		8.635,
		14.145]
	},
	{
		"bufferView":1,
		"type":"VEC3",
		"componentType":5126,
		"count":148,
		"byteOffset":12,
		"min":[-1,
		-1,
		-1],
		"max":[1,
		1,
		1]
	},
	{
		"bufferView":1,
		"type":"VEC2",
		"componentType":5126,
		"count":148,
		"byteOffset":24,
		"min":[0,
		0],
		"max":[1,
		1]
	},
	{
		"bufferView":2,
		"type":"SCALAR",
		"componentType":5123,
		"count":432,
		"byteOffset":0,
		"min":[0],
		"max":[147]
	},
	{
		"bufferView":3,
		"type":"VEC3",
		"componentType":5126,
		"count":148,
		"byteOffset":0,
		"min":[-14.145,
		-8.635,
		-14.145],
		"max":[14.145,
		8.635,
		14.145]
	},
	{
		"bufferView":3,
		"type":"VEC3",
		"componentType":5126,
		"count":148,
		"byteOffset":12,
		"min":[-1,
		-1,
		-1],
		"max":[1,
		1,
		1]
	},
	{
		"bufferView":3,
		"type":"VEC2",
		"componentType":5126,
		"count":148,
		"byteOffset":24,
		"min":[0,
		0],
		"max":[1,
		1]
	},
	{
		"bufferView":4,
		"type":"SCALAR",
		"componentType":5123,
		"count":2979,
		"byteOffset":0,
		"min":[0],
		"max":[1067]
	},
	{
		"bufferView":5,
		"type":"VEC3",
		"componentType":5126,
		"count":1068,
		"byteOffset":0,
		"min":[-0.249,
		-0.253,
		-2.423],
		"max":[0.249,
		0.248,
		2.423]
	},
	{
		"bufferView":5,
		"type":"VEC3",
		"componentType":5126,
		"count":1068,
		"byteOffset":12,
		"min":[-1,
		-1,
		-1],
		"max":[1,
		0.999,
		1]
	},
	{
		"bufferView":6,
		"type":"SCALAR",
		"componentType":5123,
		"count":468,
		"byteOffset":0,
		"min":[0],
		"max":[114]
	},
	{
		"bufferView":7,
		"type":"VEC3",
		"componentType":5126,
		"count":115,
		"byteOffset":0,
		"min":[-0.03,
		-0.419,
		-0.547],
		"max":[0.03,
		0.419,
		0.547]
	},
	{
		"bufferView":7,
		"type":"VEC3",
		"componentType":5126,
		"count":115,
		"byteOffset":12,
		"min":[-0.999,
		-0.478,
		-0.933],
		"max":[0.999,
		1,
		0.589]
	},
	{
		"bufferView":8,
		"type":"SCALAR",
		"componentType":5123,
		"count":966,
		"byteOffset":0,
		"min":[0],
		"max":[293]
	},
	{
		"bufferView":9,
		"type":"VEC3",
		"componentType":5126,
		"count":294,
		"byteOffset":0,
		"min":[-0.251,
		-0.138,
		-0.814],
		"max":[0.251,
		0.138,
		0.814]
	},
	{
		"bufferView":9,
		"type":"VEC3",
		"componentType":5126,
		"count":294,
		"byteOffset":12,
		"min":[-0.999,
		-0.999,
		-0.693],
		"max":[0.999,
		0.951,
		0.998]
	},
	{
		"bufferView":10,
		"type":"SCALAR",
		"componentType":5123,
		"count":1632,
		"byteOffset":0,
		"min":[0],
		"max":[441]
	},
	{
		"bufferView":11,
		"type":"VEC3",
		"componentType":5126,
		"count":442,
		"byteOffset":0,
		"min":[-0.888,
		-0.073,
		-0.402],
		"max":[0.888,
		0.073,
		0.402]
	},
	{
		"bufferView":11,
		"type":"VEC3",
		"componentType":5126,
		"count":442,
		"byteOffset":12,
		"min":[-1,
		-0.999,
		-1],
		"max":[0.999,
		1,
		1]
	},
	{
		"bufferView":12,
		"type":"SCALAR",
		"componentType":5123,
		"count":186,
		"byteOffset":0,
		"min":[0],
		"max":[73]
	},
	{
		"bufferView":13,
		"type":"VEC3",
		"componentType":5126,
		"count":74,
		"byteOffset":0,
		"min":[-0.133,
		-0.078,
		-0.111],
		"max":[0.133,
		0.078,
		0.111]
	},
	{
		"bufferView":13,
		"type":"VEC3",
		"componentType":5126,
		"count":74,
		"byteOffset":12,
		"min":[-0.995,
		-0.743,
		-0.546],
		"max":[0.995,
		0.766,
		0.726]
	},
	{
		"bufferView":14,
		"type":"SCALAR",
		"componentType":5123,
		"count":1776,
		"byteOffset":0,
		"min":[0],
		"max":[488]
	},
	{
		"bufferView":15,
		"type":"VEC3",
		"componentType":5126,
		"count":489,
		"byteOffset":0,
		"min":[-2.596,
		-0.21,
		-0.961],
		"max":[2.596,
		0.21,
		0.961]
	},
	{
		"bufferView":15,
		"type":"VEC3",
		"componentType":5126,
		"count":489,
		"byteOffset":12,
		"min":[-1,
		-0.992,
		-0.98],
		"max":[1,
		0.999,
		0.998]
	},
	{
		"bufferView":16,
		"type":"SCALAR",
		"componentType":5123,
		"count":738,
		"byteOffset":0,
		"min":[0],
		"max":[199]
	},
	{
		"bufferView":17,
		"type":"VEC3",
		"componentType":5126,
		"count":200,
		"byteOffset":0,
		"min":[-0.85,
		-0.057,
		-0.386],
		"max":[0.85,
		0.058,
		0.386]
	},
	{
		"bufferView":17,
		"type":"VEC3",
		"componentType":5126,
		"count":200,
		"byteOffset":12,
		"min":[-0.994,
		-0.992,
		-1],
		"max":[0.994,
		0.998,
		0.633]
	},
	{
		"bufferView":18,
		"type":"SCALAR",
		"componentType":5123,
		"count":6300,
		"byteOffset":0,
		"min":[0],
		"max":[2309]
	},
	{
		"bufferView":19,
		"type":"VEC3",
		"componentType":5126,
		"count":2310,
		"byteOffset":0,
		"min":[-1.02,
		-0.156,
		-0.247],
		"max":[1.02,
		0.168,
		0.247]
	},
	{
		"bufferView":19,
		"type":"VEC3",
		"componentType":5126,
		"count":2310,
		"byteOffset":12,
		"min":[-1,
		-0.994,
		-1],
		"max":[1,
		1,
		0.999]
	},
	{
		"bufferView":20,
		"type":"SCALAR",
		"componentType":5123,
		"count":138,
		"byteOffset":0,
		"min":[0],
		"max":[51]
	},
	{
		"bufferView":21,
		"type":"VEC3",
		"componentType":5126,
		"count":52,
		"byteOffset":0,
		"min":[-0.458,
		-0.064,
		-1.057],
		"max":[0.458,
		0.064,
		1.057]
	},
	{
		"bufferView":21,
		"type":"VEC3",
		"componentType":5126,
		"count":52,
		"byteOffset":12,
		"min":[-0.455,
		-0.998,
		-0.1],
		"max":[0.455,
		-0.813,
		0.561]
	}],
	"buffers":[{
		"uri":"data:application/octet-stream;base64,",
		"byteLength":5600
	},
	{
		"uri":"data:application/octet-stream;base64,",
		"byteLength":5600
	},
	{
		"uri":"data:application/octet-stream;base64,",
		"byteLength":31592
	},
	{
		"uri":"data:application/octet-stream;base64,",
		"byteLength":3696
	},
	{
		"uri":"data:application/octet-stream;base64,",
		"byteLength":8988
	},
	{
		"uri":"data:application/octet-stream;base64,",
		"byteLength":13872
	},
	{
		"uri":"data:application/octet-stream;base64,",
		"byteLength":2148
	},
	{
		"uri":"data:application/octet-stream;base64,",
		"byteLength":15288
	},
	{
		"uri":"data:application/octet-stream;base64,",
		"byteLength":6276
	},
	{
		"uri":"data:application/octet-stream;base64,",
		"byteLength":68040
	},
	{
		"uri":"data:application/octet-stream;base64,",
		"byteLength":1524
	}]
}