{
	"asset":{
		"version":"2.0",
		"generator":"Created using the official Cinema 4D glTF Exporter 1.000x290161"
	},
	"scenes":[{
		"nodes":[0]
	}],
	"nodes":[{
		"name":"Cylinder001",
		"translation":[0,
		0.604,
		0],
		"rotation":[0.707,
		0,
		0,
		-0.707],
		"mesh":0,
		"scale":[1,
		1,
		1]
	}],
	"bufferViews":[{
		"buffer":0,
		"byteOffset":0,
		"byteLength":9930,
		"target":34963
	},
	{
		"buffer":0,
		"byteOffset":9932,
		"byteLength":38400,
		"target":34962,
		"byteStride":32
	}],
	"meshes":[{
		"primitives":[{
			"attributes":{
				"POSITION":1,
				"NORMAL":2,
				"TEXCOORD_0":3
			},
			"indices":0,
			"material":0
		}]
	}],
	"accessors":[{
		"bufferView":0,
		"type":"SCALAR",
		"componentType":5123,
		"count":4965,
		"byteOffset":0,
		"min":[0],
		"max":[1199]
	},
	{
		"bufferView":1,
		"type":"VEC3",
		"componentType":5126,
		"count":1200,
		"byteOffset":0,
		"min":[-47.101,
		-46.86,
		0],
		"max":[47.583,
		46.808,
		66.66]
	},
	{
		"bufferView":1,
		"type":"VEC3",
		"componentType":5126,
		"count":1200,
		"byteOffset":12,
		"min":[-0.999,
		-0.998,
		-1],
		"max":[1,
		0.999,
		1]
	},
	{
		"bufferView":1,
		"type":"VEC2",
		"componentType":5126,
		"count":1200,
		"byteOffset":24,
		"min":[-0.028,
		0],
		"max":[1,
		1]
	}],
	"buffers":[{
		"uri":"data:application/octet-stream;base64,",
		"byteLength":48332
	}],
	"materials":[{
		"pbrMetallicRoughness":{
			"baseColorFactor":[0.8,
			0.8,
			0.8,
			1],
			"metallicFactor":0,
			"roughnessFactor":0.5
		},
		"emissiveFactor":[0,
		0,
		0],
		"alphaMode":"OPAQUE",
		"doubleSided":false,
		"name":"Mat"
	}]
}