{
	"asset":{
		"version":"2.0",
		"generator":"Created using the official Cinema 4D glTF Exporter 1.000x290161"
	},
	"scenes":[{
		"nodes":[0,
		1]
	}],
	"nodes":[{
		"mesh":0,
		"name":"Cube.1",
		"translation":[0.173,
		0.023,
		-0.058],
		"rotation":[0.017,
		-0.003,
		0.005,
		-1],
		"scale":[1,
		1,
		1]
	},
	{
		"mesh":1,
		"name":"Cube.015",
		"translation":[0.647,
		0.04,
		0.028],
		"rotation":[0,
		-0.707,
		0.707,
		0],
		"scale":[0.021,
		-0.021,
		0.021]
	}],
	"meshes":[{
		"primitives":[{
			"attributes":{
				"POSITION":1
			},
			"indices":0,
			"material":0
		}]
	},
	{
		"primitives":[{
			"attributes":{
				"POSITION":3
			},
			"indices":2,
			"material":0
		}]
	}],
	"accessors":[{
		"bufferView":0,
		"type":"SCALAR",
		"componentType":5123,
		"count":228,
		"byteOffset":0,
		"min":[0],
		"max":[39]
	},
	{
		"bufferView":1,
		"type":"VEC3",
		"componentType":5126,
		"count":40,
		"byteOffset":0,
		"min":[-0.64,
		-0.02,
		-0.205],
		"max":[0.64,
		0.019,
		0.205]
	},
	{
		"bufferView":2,
		"type":"SCALAR",
		"componentType":5123,
		"count":3816,
		"byteOffset":0,
		"min":[0],
		"max":[847]
	},
	{
		"bufferView":3,
		"type":"VEC3",
		"componentType":5126,
		"count":848,
		"byteOffset":0,
		"min":[-5.617,
		-12.261,
		-1.069],
		"max":[50.238,
		4.074,
		1]
	}],
	"bufferViews":[{
		"buffer":0,
		"byteOffset":0,
		"byteLength":456,
		"target":34963
	},
	{
		"buffer":0,
		"byteOffset":456,
		"byteLength":480,
		"target":34962
	},
	{
		"buffer":1,
		"byteOffset":0,
		"byteLength":7632,
		"target":34963
	},
	{
		"buffer":1,
		"byteOffset":7632,
		"byteLength":10176,
		"target":34962
	}],
	"buffers":[{
		"uri":"data:application/octet-stream;base64,",
		"byteLength":936
	},
	{
		"uri":"data:application/octet-stream;base64,",
		"byteLength":17808
	}],
	"materials":[{
		"pbrMetallicRoughness":{
			"baseColorFactor":[0.8,
			0.8,
			0.8,
			1],
			"metallicFactor":0,
			"roughnessFactor":0.5
		},
		"emissiveFactor":[0,
		0,
		0],
		"alphaMode":"OPAQUE",
		"doubleSided":false,
		"name":"Mat"
	}]
}