{
	"asset":{
		"version":"2.0",
		"generator":"Created using the official Cinema 4D glTF Exporter 1.000x290161"
	},
	"scenes":[{
		"nodes":[0]
	}],
	"nodes":[{
		"mesh":0,
		"name":"Cube.1",
		"translation":[0,
		570.208,
		7.503],
		"rotation":[0.707,
		0,
		0,
		-0.707],
		"scale":[24.302,
		24.302,
		24.302]
	}],
	"meshes":[{
		"primitives":[{
			"attributes":{
				"POSITION":1
			},
			"indices":0,
			"material":0
		}]
	}],
	"accessors":[{
		"bufferView":0,
		"type":"SCALAR",
		"componentType":5123,
		"count":1698,
		"byteOffset":0,
		"min":[0],
		"max":[509]
	},
	{
		"bufferView":1,
		"type":"VEC3",
		"componentType":5126,
		"count":510,
		"byteOffset":0,
		"min":[-29.128,
		-6.401,
		-22.402],
		"max":[29.135,
		6.401,
		18.165]
	}],
	"bufferViews":[{
		"buffer":0,
		"byteOffset":0,
		"byteLength":3396,
		"target":34963
	},
	{
		"buffer":0,
		"byteOffset":3396,
		"byteLength":6120,
		"target":34962
	}],
	"buffers":[{
		"uri":"data:application/octet-stream;base64,",
		"byteLength":9516
	}],
	"materials":[{
		"pbrMetallicRoughness":{
			"baseColorFactor":[0.8,
			0.8,
			0.8,
			1],
			"metallicFactor":0,
			"roughnessFactor":0.5
		},
		"emissiveFactor":[0,
		0,
		0],
		"alphaMode":"OPAQUE",
		"doubleSided":false,
		"name":"Mat"
	}]
}