{
	"asset":{
		"version":"2.0",
		"generator":"Created using the official Cinema 4D glTF Exporter 1.000x290161"
	},
	"scenes":[{
		"nodes":[0,
		1,
		2,
		3,
		4]
	}],
	"nodes":[{
		"name":"Cylinder.3",
		"translation":[45.08,
		17.255,
		19.037],
		"rotation":[0,
		0,
		0.738,
		-0.675],
		"scale":[1,
		1,
		1],
		"mesh":0
	},
	{
		"name":"Cylinder.2",
		"translation":[21.913,
		19.264,
		19.25],
		"rotation":[0,
		0,
		0.738,
		-0.675],
		"scale":[1,
		1,
		1],
		"mesh":1
	},
	{
		"name":"Cylinder.1",
		"translation":[-4.459,
		21.596,
		19.478],
		"rotation":[0,
		0,
		0.738,
		-0.675],
		"scale":[1,
		1,
		1],
		"mesh":2
	},
	{
		"name":"Cylinder",
		"translation":[-50.477,
		25.494,
		19.554],
		"rotation":[0,
		0,
		0.738,
		-0.675],
		"scale":[1,
		1,
		1],
		"mesh":3
	},
	{
		"name":"uploads_files_225512_Telescope+by+G.obj",
		"translation":[0,
		17.828,
		0],
		"rotation":[0.702,
		0,
		0,
		-0.712],
		"scale":[1,
		1,
		1],
		"children":[5,
		6,
		7,
		8,
		9,
		10,
		11,
		12,
		13]
	},
	{
		"name":"object_1",
		"mesh":4
	},
	{
		"name":"object_2",
		"mesh":5
	},
	{
		"name":"object_3",
		"mesh":6
	},
	{
		"name":"object_8",
		"mesh":7
	},
	{
		"name":"object_11",
		"mesh":8
	},
	{
		"name":"object_12",
		"mesh":9
	},
	{
		"name":"object_14",
		"mesh":10
	},
	{
		"name":"object_15",
		"mesh":11
	},
	{
		"name":"object_16",
		"mesh":12
	}],
	"meshes":[{
		"primitives":[{
			"attributes":{
				"POSITION":1,
				"NORMAL":2,
				"TEXCOORD_0":3
			},
			"indices":0,
			"material":0
		}]
	},
	{
		"primitives":[{
			"attributes":{
				"POSITION":5,
				"NORMAL":6,
				"TEXCOORD_0":7
			},
			"indices":4,
			"material":0
		}]
	},
	{
		"primitives":[{
			"attributes":{
				"POSITION":9,
				"NORMAL":10,
				"TEXCOORD_0":11
			},
			"indices":8,
			"material":0
		}]
	},
	{
		"primitives":[{
			"attributes":{
				"POSITION":13,
				"NORMAL":14,
				"TEXCOORD_0":15
			},
			"indices":12,
			"material":0
		}]
	},
	{
		"primitives":[{
			"attributes":{
				"POSITION":17,
				"NORMAL":18,
				"TEXCOORD_0":19
			},
			"indices":16,
			"material":0
		}]
	},
	{
		"primitives":[{
			"attributes":{
				"POSITION":21,
				"NORMAL":22,
				"TEXCOORD_0":23
			},
			"indices":20,
			"material":0
		}]
	},
	{
		"primitives":[{
			"attributes":{
				"POSITION":25,
				"NORMAL":26,
				"TEXCOORD_0":27
			},
			"indices":24,
			"material":0
		}]
	},
	{
		"primitives":[{
			"attributes":{
				"POSITION":29,
				"NORMAL":30,
				"TEXCOORD_0":31
			},
			"indices":28,
			"material":0
		}]
	},
	{
		"primitives":[{
			"attributes":{
				"POSITION":33,
				"NORMAL":34,
				"TEXCOORD_0":35
			},
			"indices":32,
			"material":0
		}]
	},
	{
		"primitives":[{
			"attributes":{
				"POSITION":37,
				"NORMAL":38,
				"TEXCOORD_0":39
			},
			"indices":36,
			"material":0
		}]
	},
	{
		"primitives":[{
			"attributes":{
				"POSITION":41,
				"NORMAL":42,
				"TEXCOORD_0":43
			},
			"indices":40,
			"material":0
		}]
	},
	{
		"primitives":[{
			"attributes":{
				"POSITION":45,
				"NORMAL":46,
				"TEXCOORD_0":47
			},
			"indices":44,
			"material":0
		}]
	},
	{
		"primitives":[{
			"attributes":{
				"POSITION":49,
				"NORMAL":50,
				"TEXCOORD_0":51
			},
			"indices":48,
			"material":0
		}]
	}],
	"accessors":[{
		"bufferView":0,
		"max":[146],
		"type":"SCALAR",
		"componentType":5123,
		"count":426,
		"byteOffset":0,
		"min":[0]
	},
	{
		"bufferView":1,
		"max":[3.387,
		2.095,
		3.387],
		"type":"VEC3",
		"componentType":5126,
		"count":147,
		"byteOffset":0,
		"min":[-3.387,
		-2.095,
		-3.387]
	},
	{
		"bufferView":1,
		"max":[1,
		1,
		1],
		"type":"VEC3",
		"componentType":5126,
		"count":147,
		"byteOffset":12,
		"min":[-1,
		-1,
		-1]
	},
	{
		"bufferView":1,
		"max":[1,
		1],
		"type":"VEC2",
		"componentType":5126,
		"count":147,
		"byteOffset":24,
		"min":[0,
		0]
	},
	{
		"bufferView":2,
		"max":[146],
		"type":"SCALAR",
		"componentType":5123,
		"count":426,
		"byteOffset":0,
		"min":[0]
	},
	{
		"bufferView":3,
		"max":[5.635,
		2.095,
		5.635],
		"type":"VEC3",
		"componentType":5126,
		"count":147,
		"byteOffset":0,
		"min":[-5.635,
		-2.095,
		-5.635]
	},
	{
		"bufferView":3,
		"max":[1,
		1,
		1],
		"type":"VEC3",
		"componentType":5126,
		"count":147,
		"byteOffset":12,
		"min":[-1,
		-1,
		-1]
	},
	{
		"bufferView":3,
		"max":[1,
		1],
		"type":"VEC2",
		"componentType":5126,
		"count":147,
		"byteOffset":24,
		"min":[0,
		0]
	},
	{
		"bufferView":4,
		"max":[146],
		"type":"SCALAR",
		"componentType":5123,
		"count":426,
		"byteOffset":0,
		"min":[0]
	},
	{
		"bufferView":5,
		"max":[8.656,
		2.095,
		8.656],
		"type":"VEC3",
		"componentType":5126,
		"count":147,
		"byteOffset":0,
		"min":[-8.656,
		-2.095,
		-8.656]
	},
	{
		"bufferView":5,
		"max":[1,
		1,
		1],
		"type":"VEC3",
		"componentType":5126,
		"count":147,
		"byteOffset":12,
		"min":[-1,
		-1,
		-1]
	},
	{
		"bufferView":5,
		"max":[1,
		1],
		"type":"VEC2",
		"componentType":5126,
		"count":147,
		"byteOffset":24,
		"min":[0,
		0]
	},
	{
		"bufferView":6,
		"max":[146],
		"type":"SCALAR",
		"componentType":5123,
		"count":426,
		"byteOffset":0,
		"min":[0]
	},
	{
		"bufferView":7,
		"max":[12.809,
		3.034,
		12.809],
		"type":"VEC3",
		"componentType":5126,
		"count":147,
		"byteOffset":0,
		"min":[-12.809,
		-3.034,
		-12.809]
	},
	{
		"bufferView":7,
		"max":[1,
		1,
		1],
		"type":"VEC3",
		"componentType":5126,
		"count":147,
		"byteOffset":12,
		"min":[-1,
		-1,
		-1]
	},
	{
		"bufferView":7,
		"max":[1,
		1],
		"type":"VEC2",
		"componentType":5126,
		"count":147,
		"byteOffset":24,
		"min":[0,
		0]
	},
	{
		"bufferView":8,
		"max":[447],
		"type":"SCALAR",
		"componentType":5123,
		"count":2688,
		"byteOffset":0,
		"min":[0]
	},
	{
		"bufferView":9,
		"max":[47.156,
		-15.657,
		5.413],
		"type":"VEC3",
		"componentType":5126,
		"count":448,
		"byteOffset":0,
		"min":[18.649,
		-22.695,
		-3.212]
	},
	{
		"bufferView":9,
		"max":[0.138,
		1,
		0.999],
		"type":"VEC3",
		"componentType":5126,
		"count":448,
		"byteOffset":12,
		"min":[-0.122,
		-1,
		-0.999]
	},
	{
		"bufferView":9,
		"max":[0.969,
		1],
		"type":"VEC2",
		"componentType":5126,
		"count":448,
		"byteOffset":24,
		"min":[0,
		0.143]
	},
	{
		"bufferView":10,
		"max":[895],
		"type":"SCALAR",
		"componentType":5123,
		"count":5376,
		"byteOffset":0,
		"min":[0]
	},
	{
		"bufferView":11,
		"max":[23.362,
		-12.774,
		10.75],
		"type":"VEC3",
		"componentType":5126,
		"count":896,
		"byteOffset":0,
		"min":[-9.388,
		-25.752,
		-3.076]
	},
	{
		"bufferView":11,
		"max":[0.299,
		1,
		1],
		"type":"VEC3",
		"componentType":5126,
		"count":896,
		"byteOffset":12,
		"min":[-0.415,
		-1,
		-1]
	},
	{
		"bufferView":11,
		"max":[0.969,
		1],
		"type":"VEC2",
		"componentType":5126,
		"count":896,
		"byteOffset":24,
		"min":[0,
		0.071]
	},
	{
		"bufferView":12,
		"max":[703],
		"type":"SCALAR",
		"componentType":5123,
		"count":4224,
		"byteOffset":0,
		"min":[0]
	},
	{
		"bufferView":13,
		"max":[-3.201,
		-7.412,
		19.761],
		"type":"VEC3",
		"componentType":5126,
		"count":704,
		"byteOffset":0,
		"min":[-51.206,
		-31.373,
		-4.113]
	},
	{
		"bufferView":13,
		"max":[0.244,
		1,
		1],
		"type":"VEC3",
		"componentType":5126,
		"count":704,
		"byteOffset":12,
		"min":[-0.184,
		-1,
		-1]
	},
	{
		"bufferView":13,
		"max":[0.969,
		1],
		"type":"VEC2",
		"componentType":5126,
		"count":704,
		"byteOffset":24,
		"min":[0,
		0.091]
	},
	{
		"bufferView":14,
		"max":[535],
		"type":"SCALAR",
		"componentType":5123,
		"count":804,
		"byteOffset":0,
		"min":[0]
	},
	{
		"bufferView":15,
		"max":[-13.453,
		-12.215,
		-1.206],
		"type":"VEC3",
		"componentType":5126,
		"count":536,
		"byteOffset":0,
		"min":[-23.447,
		-26.861,
		-16.412]
	},
	{
		"bufferView":15,
		"max":[0.996,
		1,
		0.996],
		"type":"VEC3",
		"componentType":5126,
		"count":536,
		"byteOffset":12,
		"min":[-0.996,
		-1,
		-0.996]
	},
	{
		"bufferView":15,
		"max":[1,
		1],
		"type":"VEC2",
		"componentType":5126,
		"count":536,
		"byteOffset":24,
		"min":[0,
		1]
	},
	{
		"bufferView":16,
		"max":[490],
		"type":"SCALAR",
		"componentType":5123,
		"count":846,
		"byteOffset":0,
		"min":[0]
	},
	{
		"bufferView":17,
		"max":[4.057,
		1.084,
		-12.726],
		"type":"VEC3",
		"componentType":5126,
		"count":491,
		"byteOffset":0,
		"min":[-32.402,
		-41.025,
		-43.438]
	},
	{
		"bufferView":17,
		"max":[0.866,
		1,
		0.796],
		"type":"VEC3",
		"componentType":5126,
		"count":491,
		"byteOffset":12,
		"min":[-0.866,
		-1,
		-0.796]
	},
	{
		"bufferView":17,
		"max":[1,
		1],
		"type":"VEC2",
		"componentType":5126,
		"count":491,
		"byteOffset":24,
		"min":[0,
		0]
	},
	{
		"bufferView":18,
		"max":[599],
		"type":"SCALAR",
		"componentType":5123,
		"count":900,
		"byteOffset":0,
		"min":[0]
	},
	{
		"bufferView":19,
		"max":[33.691,
		24.25,
		-36.92],
		"type":"VEC3",
		"componentType":5126,
		"count":600,
		"byteOffset":0,
		"min":[-43.412,
		-64.804,
		-83.889]
	},
	{
		"bufferView":19,
		"max":[0.912,
		1,
		0.934],
		"type":"VEC3",
		"componentType":5126,
		"count":600,
		"byteOffset":12,
		"min":[-0.912,
		-1,
		-0.74]
	},
	{
		"bufferView":19,
		"max":[1,
		1],
		"type":"VEC2",
		"componentType":5126,
		"count":600,
		"byteOffset":24,
		"min":[0,
		1]
	},
	{
		"bufferView":20,
		"max":[167],
		"type":"SCALAR",
		"componentType":5123,
		"count":252,
		"byteOffset":0,
		"min":[0]
	},
	{
		"bufferView":21,
		"max":[35.654,
		26.511,
		-76.622],
		"type":"VEC3",
		"componentType":5126,
		"count":168,
		"byteOffset":0,
		"min":[-45.393,
		-67.098,
		-85.823]
	},
	{
		"bufferView":21,
		"max":[0.866,
		1,
		0.845],
		"type":"VEC3",
		"componentType":5126,
		"count":168,
		"byteOffset":12,
		"min":[-0.866,
		-1,
		-0.848]
	},
	{
		"bufferView":21,
		"max":[1,
		1],
		"type":"VEC2",
		"componentType":5126,
		"count":168,
		"byteOffset":24,
		"min":[0,
		1]
	},
	{
		"bufferView":22,
		"max":[263],
		"type":"SCALAR",
		"componentType":5123,
		"count":396,
		"byteOffset":0,
		"min":[0]
	},
	{
		"bufferView":23,
		"max":[-0.919,
		-5.192,
		-36.047],
		"type":"VEC3",
		"componentType":5126,
		"count":264,
		"byteOffset":0,
		"min":[-26.794,
		-35.069,
		-37.465]
	},
	{
		"bufferView":23,
		"max":[0.995,
		1,
		1],
		"type":"VEC3",
		"componentType":5126,
		"count":264,
		"byteOffset":12,
		"min":[-0.998,
		-1,
		-1]
	},
	{
		"bufferView":23,
		"max":[1,
		1],
		"type":"VEC2",
		"componentType":5126,
		"count":264,
		"byteOffset":24,
		"min":[0,
		1]
	},
	{
		"bufferView":24,
		"max":[77],
		"type":"SCALAR",
		"componentType":5123,
		"count":384,
		"byteOffset":0,
		"min":[0]
	},
	{
		"bufferView":25,
		"max":[-15.695,
		-18.524,
		-36.165],
		"type":"VEC3",
		"componentType":5126,
		"count":78,
		"byteOffset":0,
		"min":[-19.404,
		-21.737,
		-37.76]
	},
	{
		"bufferView":25,
		"max":[1,
		0.866,
		1],
		"type":"VEC3",
		"componentType":5126,
		"count":78,
		"byteOffset":12,
		"min":[-1,
		-0.866,
		-1]
	},
	{
		"bufferView":25,
		"max":[0.833,
		1],
		"type":"VEC2",
		"componentType":5126,
		"count":78,
		"byteOffset":24,
		"min":[0,
		0.091]
	}],
	"bufferViews":[{
		"buffer":0,
		"byteOffset":0,
		"byteLength":852,
		"target":34963
	},
	{
		"buffer":0,
		"byteOffset":852,
		"byteLength":4704,
		"target":34962,
		"byteStride":32
	},
	{
		"buffer":1,
		"byteOffset":0,
		"byteLength":852,
		"target":34963
	},
	{
		"buffer":1,
		"byteOffset":852,
		"byteLength":4704,
		"target":34962,
		"byteStride":32
	},
	{
		"buffer":2,
		"byteOffset":0,
		"byteLength":852,
		"target":34963
	},
	{
		"buffer":2,
		"byteOffset":852,
		"byteLength":4704,
		"target":34962,
		"byteStride":32
	},
	{
		"buffer":3,
		"byteOffset":0,
		"byteLength":852,
		"target":34963
	},
	{
		"buffer":3,
		"byteOffset":852,
		"byteLength":4704,
		"target":34962,
		"byteStride":32
	},
	{
		"buffer":4,
		"byteOffset":0,
		"byteLength":5376,
		"target":34963
	},
	{
		"buffer":4,
		"byteOffset":5376,
		"byteLength":14336,
		"target":34962,
		"byteStride":32
	},
	{
		"buffer":5,
		"byteOffset":0,
		"byteLength":10752,
		"target":34963
	},
	{
		"buffer":5,
		"byteOffset":10752,
		"byteLength":28672,
		"target":34962,
		"byteStride":32
	},
	{
		"buffer":6,
		"byteOffset":0,
		"byteLength":8448,
		"target":34963
	},
	{
		"buffer":6,
		"byteOffset":8448,
		"byteLength":22528,
		"target":34962,
		"byteStride":32
	},
	{
		"buffer":7,
		"byteOffset":0,
		"byteLength":1608,
		"target":34963
	},
	{
		"buffer":7,
		"byteOffset":1608,
		"byteLength":17152,
		"target":34962,
		"byteStride":32
	},
	{
		"buffer":8,
		"byteOffset":0,
		"byteLength":1692,
		"target":34963
	},
	{
		"buffer":8,
		"byteOffset":1692,
		"byteLength":15712,
		"target":34962,
		"byteStride":32
	},
	{
		"buffer":9,
		"byteOffset":0,
		"byteLength":1800,
		"target":34963
	},
	{
		"buffer":9,
		"byteOffset":1800,
		"byteLength":19200,
		"target":34962,
		"byteStride":32
	},
	{
		"buffer":10,
		"byteOffset":0,
		"byteLength":504,
		"target":34963
	},
	{
		"buffer":10,
		"byteOffset":504,
		"byteLength":5376,
		"target":34962,
		"byteStride":32
	},
	{
		"buffer":11,
		"byteOffset":0,
		"byteLength":792,
		"target":34963
	},
	{
		"buffer":11,
		"byteOffset":792,
		"byteLength":8448,
		"target":34962,
		"byteStride":32
	},
	{
		"buffer":12,
		"byteOffset":0,
		"byteLength":768,
		"target":34963
	},
	{
		"buffer":12,
		"byteOffset":768,
		"byteLength":2496,
		"target":34962,
		"byteStride":32
	}],
	"buffers":[{
		"uri":"data:application/octet-stream;base64,",
		"byteLength":5556
	},
	{
		"uri":"data:application/octet-stream;base64,",
		"byteLength":5556
	},
	{
		"uri":"data:application/octet-stream;base64,",
		"byteLength":5556
	},
	{
		"uri":"data:application/octet-stream;base64,",
		"byteLength":5556
	},
	{
		"uri":"data:application/octet-stream;base64,",
		"byteLength":19712
	},
	{
		"uri":"data:application/octet-stream;base64,",
		"byteLength":39424
	},
	{
		"uri":"data:application/octet-stream;base64,",
		"byteLength":30976
	},
	{
		"uri":"data:application/octet-stream;base64,",
		"byteLength":18760
	},
	{
		"uri":"data:application/octet-stream;base64,",
		"byteLength":17404
	},
	{
		"uri":"data:application/octet-stream;base64,",
		"byteLength":21000
	},
	{
		"uri":"data:application/octet-stream;base64,",
		"byteLength":5880
	},
	{
		"uri":"data:application/octet-stream;base64,",
		"byteLength":9240
	},
	{
		"uri":"data:application/octet-stream;base64,",
		"byteLength":3264
	}],
	"materials":[{
		"pbrMetallicRoughness":{
			"baseColorFactor":[0.8,
			0.8,
			0.8,
			1],
			"metallicFactor":0,
			"roughnessFactor":0.5
		},
		"emissiveFactor":[0,
		0,
		0],
		"alphaMode":"OPAQUE",
		"doubleSided":false,
		"name":"Mat"
	}]
}